<?xml version="1.0" encoding="UTF-8" standalone="no"?>
<!-- Created with Inkscape (http://www.inkscape.org/) -->

<svg
   xmlns:dc="http://purl.org/dc/elements/1.1/"
   xmlns:cc="http://creativecommons.org/ns#"
   xmlns:rdf="http://www.w3.org/1999/02/22-rdf-syntax-ns#"
   xmlns:svg="http://www.w3.org/2000/svg"
   xmlns="http://www.w3.org/2000/svg"
   xmlns:sodipodi="http://sodipodi.sourceforge.net/DTD/sodipodi-0.dtd"
   xmlns:inkscape="http://www.inkscape.org/namespaces/inkscape"
   version="1.1"
   id="svg2"
   xml:space="preserve"
   width="1500"
   height="1440"
   viewBox="0 0 1500 1440"
   sodipodi:docname="FluentERP.svg"
   inkscape:version="0.92.1 r15371"><metadata
     id="metadata8"><rdf:RDF><cc:Work
         rdf:about=""><dc:format>image/svg+xml</dc:format><dc:type
           rdf:resource="http://purl.org/dc/dcmitype/StillImage" /><dc:title></dc:title></cc:Work></rdf:RDF></metadata><defs
     id="defs6" /><sodipodi:namedview
     pagecolor="#ffffff"
     bordercolor="#666666"
     borderopacity="1"
     objecttolerance="10"
     gridtolerance="10"
     guidetolerance="10"
     inkscape:pageopacity="0"
     inkscape:pageshadow="2"
     inkscape:window-width="1366"
     inkscape:window-height="705"
     id="namedview4"
     showgrid="false"
     inkscape:pagecheckerboard="false"
     inkscape:zoom="0.12421875"
     inkscape:cx="1280"
     inkscape:cy="720"
     inkscape:window-x="-8"
     inkscape:window-y="-8"
     inkscape:window-maximized="1"
     inkscape:current-layer="g10" /><g
     id="g10"
     inkscape:groupmode="layer"
     inkscape:label="FluentERP"
     transform="matrix(1.3333333,0,0,-1.3333333,0,1440)"><g
       id="g12"
       transform="translate(705.9199,392.3975)"><path
         d="m 0,0 v -165.518 l -80.536,82.612 z M 91.893,61.679 H 230.832 L 182.938,13.786 H 91.893 Z m -590.422,254.133 h 70.568 l 80.54,95.98 h -151.108 v 48.867 h 192.111 l 81.23,96.805 v 0.149 H -589.642 V 29.622 h 1.199 l 26.897,32.057 h 251.571 V 13.786 h -279.667 v -95.98 h 279.667 v -47.632 h -279.667 v -95.981 h 371.559 V -82.751 61.679 H -81.078 L -218.083,-82.751 -37.77,-271.434 h 139.655 l -44.06,45.627 h 34.068 v 143.613 h 137.925 0.037 v 0.227 l 77.814,79.98 v 160.62 h -806.198 z"
         style="fill:#1e1e1e;fill-opacity:1;fill-rule:nonzero;stroke:none"
         id="path14"
         inkscape:connector-curvature="0" /></g><g
       id="g16"
       transform="translate(919.9453,950.0103)"><path
         d="m 0,0 v -242.065 l -47.501,-47.501 h -135.7 V 0 h -91.892 v -289.566 h -155.554 v 165.873 l -91.601,-109.164 v -152.72 H -0.685 0 v 0.684 l 93.644,93.642 V 0 Z"
         style="fill:#1e1e1e;fill-opacity:1;fill-rule:nonzero;stroke:none"
         id="path18"
         inkscape:connector-curvature="0" /></g><path
       d="m 93.694,73.92 h 937.611 v 932.16 H 93.694 Z M 1056.226,49 H 68.775 v 982 h 987.451 z"
       style="fill:#1e1e1e;fill-opacity:1;fill-rule:nonzero;stroke:none"
       id="path20"
       inkscape:connector-curvature="0" /></g></svg>